<svg width="35" height="35" viewBox="0 0 35 35" fill="none" xmlns="http://www.w3.org/2000/svg">
    <path d="M7.29167 32.0833H27.7083C28.4819 32.0833 29.2237 31.776 29.7707 31.229C30.3177 30.6821 30.625 29.9402 30.625 29.1667V16.0417C30.6261 15.8497 30.5893 15.6595 30.5167 15.4818C30.4442 15.3041 30.3372 15.1425 30.2021 15.0062L18.5354 3.33957C18.2622 3.06795 17.8926 2.9155 17.5073 2.9155C17.122 2.9155 16.7524 3.06795 16.4792 3.33957L4.8125 15.0062C4.6747 15.1413 4.56508 15.3024 4.48998 15.4801C4.41488 15.6578 4.3758 15.8487 4.375 16.0417V29.1667C4.375 29.9402 4.68229 30.6821 5.22927 31.229C5.77625 31.776 6.51812 32.0833 7.29167 32.0833ZM14.5833 29.1667V21.875H20.4167V29.1667H14.5833ZM7.29167 16.6396L17.5 6.43124L27.7083 16.6396V29.1667H23.3333V21.875C23.3333 21.1014 23.026 20.3596 22.4791 19.8126C21.9321 19.2656 21.1902 18.9583 20.4167 18.9583H14.5833C13.8098 18.9583 13.0679 19.2656 12.5209 19.8126C11.974 20.3596 11.6667 21.1014 11.6667 21.875V29.1667H7.29167V16.6396Z" fill="black"/>
</svg>
