<svg width="35" height="35" viewBox="0 0 35 35" fill="none" xmlns="http://www.w3.org/2000/svg">
    <path d="M17.5 2.91666C16.0578 2.91666 14.6481 3.34431 13.449 4.14552C12.2499 4.94674 11.3153 6.08555 10.7634 7.41792C10.2115 8.7503 10.0671 10.2164 10.3484 11.6309C10.6298 13.0453 11.3243 14.3446 12.344 15.3643C13.3638 16.3841 14.663 17.0785 16.0775 17.3599C17.4919 17.6412 18.958 17.4968 20.2904 16.9449C21.6228 16.3931 22.7616 15.4585 23.5628 14.2594C24.364 13.0602 24.7917 11.6505 24.7917 10.2083C24.7917 8.27445 24.0234 6.41979 22.656 5.05234C21.2885 3.68488 19.4339 2.91666 17.5 2.91666ZM17.5 14.5833C16.6347 14.5833 15.7888 14.3267 15.0694 13.846C14.3499 13.3653 13.7892 12.682 13.458 11.8826C13.1269 11.0831 13.0403 10.2035 13.2091 9.3548C13.3779 8.50614 13.7946 7.72659 14.4064 7.11473C15.0183 6.50288 15.7978 6.0862 16.6465 5.91739C17.4951 5.74858 18.3748 5.83522 19.1742 6.16635C19.9737 6.49748 20.6569 7.05824 21.1377 7.7777C21.6184 8.49717 21.875 9.34303 21.875 10.2083C21.875 11.3686 21.4141 12.4814 20.5936 13.3019C19.7731 14.1224 18.6603 14.5833 17.5 14.5833ZM30.625 30.625V29.1667C30.625 26.4592 29.5495 23.8627 27.635 21.9483C25.7206 20.0338 23.1241 18.9583 20.4167 18.9583H14.5833C11.8759 18.9583 9.27939 20.0338 7.36495 21.9483C5.45052 23.8627 4.375 26.4592 4.375 29.1667V30.625H7.29167V29.1667C7.29167 27.2328 8.05989 25.3781 9.42735 24.0107C10.7948 22.6432 12.6495 21.875 14.5833 21.875H20.4167C22.3505 21.875 24.2052 22.6432 25.5727 24.0107C26.9401 25.3781 27.7083 27.2328 27.7083 29.1667V30.625H30.625Z" fill="black"/>
</svg>
