<svg width="35" height="35" viewBox="0 0 35 35" fill="none" xmlns="http://www.w3.org/2000/svg">
    <path d="M18.9584 10.2083H16.0417V16.0417H10.2084V18.9583H16.0417V24.7917H18.9584V18.9583H24.7917V16.0417H18.9584V10.2083Z" fill="black"/>
    <path d="M17.5 2.91666C9.45871 2.91666 2.91663 9.45874 2.91663 17.5C2.91663 25.5412 9.45871 32.0833 17.5 32.0833C25.5412 32.0833 32.0833 25.5412 32.0833 17.5C32.0833 9.45874 25.5412 2.91666 17.5 2.91666ZM17.5 29.1667C11.0673 29.1667 5.83329 23.9327 5.83329 17.5C5.83329 11.0673 11.0673 5.83332 17.5 5.83332C23.9327 5.83332 29.1666 11.0673 29.1666 17.5C29.1666 23.9327 23.9327 29.1667 17.5 29.1667Z" fill="black"/>
</svg>
