<svg width="162" height="129" viewBox="0 0 162 129" fill="none" xmlns="http://www.w3.org/2000/svg">
    <path d="M0.901672 64.45V128.7H8.82584H16.75V127.201V125.702H10.325H3.90001V64.45V3.19835H10.325H16.75V1.69918V0.200012H8.82584H0.901672V64.45Z" fill="black"/>
    <path d="M145.25 1.69918V3.19835H151.675H158.1V64.45V125.702H151.675H145.25V127.201V128.7H153.174H161.098V64.45V0.200012H153.174H145.25V1.69918Z" fill="black"/>
    <path d="M65.58 29.1553C59.6262 31.04 55.2572 37.6364 55.8568 43.9329C56.2852 48.773 59.669 53.7845 63.8238 55.6264L65.58 56.4402V65.6922C65.58 74.1732 65.6657 75.0727 66.4367 76.3149L67.2933 77.7284H63.5668H59.8832L60.7398 76.7432C62.239 75.1155 62.753 73.7449 62.753 71.0892C62.7102 68.2622 62.0677 66.6345 60.1402 64.707C56.7135 61.2375 50.2028 61.4945 47.0332 65.2639C44.506 68.305 44.3347 72.9739 46.6905 76.3149C48.0183 78.1995 48.0612 78.328 47.333 78.8849C45.7053 80.0842 45.02 81.7119 45.02 84.4532V87.1517H49.0892H53.1583V93.234C53.1583 96.6179 53.3297 99.6162 53.5438 99.916C53.758 100.259 54.272 100.43 54.7003 100.344C55.4285 100.216 55.5142 99.659 55.6427 93.6624L55.7712 87.1089L56.9277 87.2374L58.0842 87.3659L58.2127 93.9194C58.3412 100.43 58.3412 100.473 59.2835 100.344C60.183 100.216 60.2258 100.045 60.44 93.7909L60.6542 87.3659L62.9243 87.2374C64.9803 87.1089 65.1517 87.0232 65.1517 86.038V85.01H56.1567C47.5472 85.01 47.1617 84.9672 47.1617 84.1962C47.1617 82.4829 48.0183 81.1122 49.5175 80.4697C50.8453 79.9557 54.5718 79.87 74.6178 79.9557L98.219 80.0842L99.247 81.2835C99.8038 81.9689 100.275 83.0397 100.275 83.725V85.01L91.4085 85.0957C82.542 85.2242 82.4992 85.2242 82.3707 86.1665C82.2422 87.1089 82.3707 87.1517 84.598 87.1517H86.9538L87.0823 93.6624C87.2108 99.659 87.2965 100.216 88.0247 100.344C88.453 100.43 88.967 100.259 89.1812 99.916C89.3953 99.6162 89.5667 96.6179 89.5667 93.234V87.1517H90.6375H91.7083V93.234C91.7083 96.6179 91.8797 99.6162 92.0938 99.916C92.308 100.259 92.822 100.43 93.2503 100.344C93.9785 100.216 94.0642 99.659 94.1927 93.6624L94.3212 87.1517H98.3903H102.502L102.331 84.239C102.245 82.6542 101.988 81.0265 101.817 80.5982C101.517 79.9985 101.689 79.87 102.545 79.87C103.145 79.87 103.745 80.0414 103.916 80.2984C104.044 80.5125 104.644 83.9392 105.201 87.8799C105.801 91.8205 106.443 95.804 106.7 96.6607C108.328 102.486 116.98 101.244 116.98 95.2044C116.98 94.4334 116.38 88.9935 115.695 83.1254C113.896 68.2194 114.11 68.4764 103.059 68.1337C96.8483 67.9624 95.5633 67.7482 89.3525 66.2062C83.9127 64.7927 81.7282 64.45 78.7727 64.45H75.0033V60.3809V56.3545L76.631 55.5835C79.2867 54.3414 82.4563 50.829 83.5272 47.9592C84.9407 44.2755 84.6837 39.4782 82.9275 36.2229C81.2998 33.2674 78.1302 30.4404 75.1747 29.3695C72.4333 28.2987 68.4498 28.213 65.58 29.1553ZM75.0462 31.811C77.4448 32.8819 80.0148 35.4519 81.0857 37.8077C85.626 47.9164 74.9177 58.4534 65.0232 53.5704C57.2275 49.7582 55.7712 39.6495 62.1962 33.867C65.7942 30.6117 70.6772 29.8407 75.0462 31.811ZM72.4333 61.4089C72.4333 67.0629 72.3905 67.02 78.5157 67.02C82.542 67.02 84.0412 67.2342 89.0527 68.562C94.364 69.9755 95.649 70.1469 102.46 70.4039C109.056 70.618 110.17 70.7465 110.941 71.4747C111.412 71.903 111.926 72.5884 112.011 72.9739C112.14 73.3594 112.825 78.6279 113.553 84.6674C114.924 96.2324 114.924 96.9177 113.125 97.86C111.926 98.5025 111.155 98.374 109.912 97.3032C108.885 96.4465 108.713 95.7612 107.514 87.58C106.829 82.7399 106.186 78.5422 106.058 78.2424C105.929 77.8569 102.031 77.7284 88.71 77.7284C69.8633 77.7284 69.692 77.6855 68.3642 75.1584C67.8502 74.1732 67.7217 72.2029 67.7217 65.5209V57.1684H70.0775H72.4333V61.4089ZM57.7415 65.6494C61.5537 68.3479 61.211 74.4302 57.1847 76.7432C50.8453 80.384 44.1205 72.5027 48.7465 66.9772C49.389 66.249 50.5027 65.3495 51.2308 65.0497C52.987 64.2359 56.1995 64.5357 57.7415 65.6494Z" fill="black"/>
    <path d="M67.8502 38.75C66.1368 39.778 65.58 40.806 65.58 43.0333C65.58 46.8883 70.1632 48.8158 73.2472 46.203C75.7743 44.1042 75.2175 39.9922 72.2192 38.5787C70.3773 37.6792 69.5207 37.722 67.8502 38.75ZM71.9193 40.9773C72.6475 41.7055 72.5618 43.7187 71.748 44.4897C69.6492 46.6313 66.4367 43.4617 68.4498 41.2343C69.2208 40.3777 71.1483 40.2063 71.9193 40.9773Z" fill="black"/>
    <path d="M60.6113 42.3908C60.44 42.7763 60.5257 43.2903 60.7827 43.5473C61.468 44.2327 62.7958 43.7615 62.7958 42.8192C62.7958 41.7055 60.9968 41.3628 60.6113 42.3908Z" fill="black"/>
    <path d="M61.8107 46.974C61.8963 47.6165 62.239 47.9592 62.7958 47.9592C63.3527 47.9592 63.6953 47.6165 63.781 46.974C63.9095 46.203 63.7382 46.0317 62.7958 46.0317C61.8535 46.0317 61.6822 46.203 61.8107 46.974Z" fill="black"/>
    <path d="M64.8947 49.6725C64.552 50.4863 65.0232 51.1717 66.0083 51.1717C66.8222 51.1717 67.2933 50.4435 66.9935 49.544C66.7365 48.8158 65.1945 48.9015 64.8947 49.6725Z" fill="black"/>
    <path d="M69.5207 50.2722C68.664 50.7862 69.0923 52.2425 70.0775 52.2425C70.6772 52.2425 70.9342 51.9427 70.9342 51.2145C70.9342 50.058 70.3773 49.7153 69.5207 50.2722Z" fill="black"/>
    <path d="M67.893 85.6525C67.5503 86.4663 68.0215 87.1517 69.0067 87.1517C69.8205 87.1517 70.2917 86.4235 69.9918 85.524C69.7348 84.7958 68.1928 84.8815 67.893 85.6525Z" fill="black"/>
    <path d="M72.7332 85.5668C72.3905 86.4663 73.0758 87.2373 73.9753 87.066C75.1318 86.8518 75.0462 85.267 73.8897 85.0957C73.3757 85.01 72.8617 85.2242 72.7332 85.5668Z" fill="black"/>
    <path d="M77.8732 85.267C77.7018 85.4383 77.5733 85.9523 77.5733 86.3807C77.5733 86.9803 77.8303 87.1945 78.5585 87.066C79.1582 86.9803 79.5008 86.6377 79.5008 86.0808C79.5008 85.2242 78.43 84.7102 77.8732 85.267Z" fill="black"/>
    <path d="M48.618 98.9309C48.2753 99.7447 48.7465 100.43 49.7317 100.43C50.5455 100.43 51.0167 99.7019 50.7168 98.8024C50.4598 98.0742 48.9178 98.1599 48.618 98.9309Z" fill="black"/>
    <path d="M63.1813 98.9309C62.8387 99.7875 63.3527 100.43 64.3378 100.43C64.9375 100.43 65.1517 100.13 65.1517 99.3592C65.1517 98.5882 64.9375 98.2884 64.295 98.2884C63.8238 98.2884 63.3098 98.5882 63.1813 98.9309Z" fill="black"/>
    <path d="M67.893 98.9309C67.5503 99.7447 68.0215 100.43 69.0067 100.43C69.8205 100.43 70.2917 99.7019 69.9918 98.8024C69.7348 98.0742 68.1928 98.1599 67.893 98.9309Z" fill="black"/>
    <path d="M72.7332 98.8452C72.3905 99.7447 73.0758 100.516 73.9753 100.344C75.1318 100.13 75.0462 98.5454 73.8897 98.374C73.3757 98.2884 72.8617 98.5025 72.7332 98.8452Z" fill="black"/>
    <path d="M77.5733 99.3592C77.5733 100.302 77.7447 100.473 78.5585 100.344C79.1582 100.259 79.5008 99.916 79.5008 99.3592C79.5008 98.8024 79.1582 98.4597 78.5585 98.374C77.7447 98.2455 77.5733 98.4169 77.5733 99.3592Z" fill="black"/>
    <path d="M82.4563 98.9309C82.1137 99.7875 82.6277 100.43 83.6128 100.43C84.2125 100.43 84.4267 100.13 84.4267 99.3592C84.4267 98.5882 84.2125 98.2884 83.57 98.2884C83.0988 98.2884 82.5848 98.5882 82.4563 98.9309Z" fill="black"/>
    <path d="M96.8483 99.3592C96.8483 100.302 97.0197 100.473 97.8335 100.344C98.4332 100.259 98.7758 99.916 98.7758 99.3592C98.7758 98.8024 98.4332 98.4597 97.8335 98.374C97.0197 98.2455 96.8483 98.4169 96.8483 99.3592Z" fill="black"/>
</svg>
